<?xml version="1.0" encoding="iso-8859-1"?>
<!-- Uploaded to: SVG Repo, www.svgrepo.com, Generator: SVG Repo Mixer Tools -->
<svg height="800px" width="800px" version="1.1" id="Layer_1" xmlns="http://www.w3.org/2000/svg" xmlns:xlink="http://www.w3.org/1999/xlink" 
	 viewBox="0 0 512 512" xml:space="preserve">
<path style="fill:#F7AFD1;" d="M400.696,500.87h-66.783c-18.413,0-33.391-14.978-33.391-33.391v-13.429
	c-22.5,3.054-44.282,3.054-66.783,0v13.429c0,18.413-14.978,33.391-33.391,33.391h-66.783c-18.413,0-33.391-14.978-33.391-33.391
	V401c-32.358-32.956-50.087-74.303-50.087-117.173c0-82.157,65.348-154.864,158.918-176.81c3.636-0.848,7.456-0.462,10.837,1.109
	c4.545,2.109,9.224,3.18,13.897,3.18c9.347,0,16.386-4.055,20.641-7.451c2.76-2.212,6.157-3.484,9.696-3.636l3.054-0.043
	c15.071,0,30.032,1.304,44.646,3.891c17.033-32.799,51.142-53.978,88.919-53.978c9.223,0,16.696,7.473,16.696,16.696v84.527
	c17.397,14.163,32.06,31.23,43.044,49.038h18.174c18.413,0,33.391,14.978,33.391,33.391v66.783
	c0,18.413-14.978,33.391-33.391,33.391h-2.615c-8.19,24.487-22.478,47.299-41.907,67.086v66.479
	C434.087,485.891,419.109,500.87,400.696,500.87z"/>
<g>
	<path style="fill:#F490C0;" d="M66.783,292.73H50.087c-13.385,0-25.962-5.491-35.418-14.957C5.212,268.327,0,255.612,0,242.226
		c0-13.385,5.212-26.032,14.679-35.488c6.516-6.516,17.092-6.551,23.609-0.023c6.516,6.521,6.511,17.075-0.011,23.591
		c-3.152,3.152-4.886,7.334-4.886,11.79c0,4.457,1.734,8.921,4.886,12.073c3.163,3.162,7.354,5.17,11.811,5.17h16.696
		c9.223,0,16.696,7.473,16.696,16.696C83.478,285.257,76.005,292.73,66.783,292.73z"/>
	<path style="fill:#F490C0;" d="M300.522,454.049v13.429c0,18.413,14.978,33.391,33.391,33.391h66.783
		c18.413,0,33.391-14.978,33.391-33.391V401c19.429-19.788,33.717-42.6,41.907-67.086h2.615c18.413,0,33.391-14.978,33.391-33.391
		v-66.783c0-18.413-14.978-33.391-33.391-33.391h-18.174c-10.984-17.809-25.647-34.875-43.044-49.038V66.783
		c0-9.223-7.473-16.696-16.696-16.696c-37.777,0-71.886,21.179-88.919,53.978c-14.614-2.587-29.576-3.891-44.646-3.891V456.34
		C278.201,456.34,289.272,455.576,300.522,454.049z"/>
</g>
<path style="fill:#FFCD00;" d="M233.739,144.696c-36.826,0-66.783-29.956-66.783-66.783s29.956-66.783,66.783-66.783
	s66.783,29.956,66.783,66.783S270.565,144.696,233.739,144.696z"/>
<g>
	<path style="fill:#A71159;" d="M272.696,222.609h-77.913c-9.223,0-16.696-7.473-16.696-16.696s7.473-16.696,16.696-16.696h77.913
		c9.223,0,16.696,7.473,16.696,16.696S281.918,222.609,272.696,222.609z"/>
	<path style="fill:#A71159;" d="M389.565,228.174c0,9.22-7.475,16.696-16.696,16.696l0,0c-9.22,0-16.696-7.475-16.696-16.696l0,0
		c0-9.22,7.475-16.696,16.696-16.696l0,0C382.09,211.478,389.565,218.953,389.565,228.174L389.565,228.174z"/>
</g>
<path style="fill:#FFA733;" d="M300.522,77.913c0-36.826-29.956-66.783-66.783-66.783v133.565
	C270.565,144.696,300.522,114.739,300.522,77.913z"/>
</svg>