<?xml version="1.0" encoding="UTF-8" standalone="no"?>
<!-- Created with Inkscape (http://www.inkscape.org/) -->

<svg
   width="48"
   height="48"
   viewBox="0 0 12.7 12.7"
   version="1.1"
   id="svg1"
   inkscape:version="1.3.2 (091e20e, 2023-11-25, custom)"
   sodipodi:docname="entertainment.svg"
   xmlns:inkscape="http://www.inkscape.org/namespaces/inkscape"
   xmlns:sodipodi="http://sodipodi.sourceforge.net/DTD/sodipodi-0.dtd"
   xmlns="http://www.w3.org/2000/svg"
   xmlns:svg="http://www.w3.org/2000/svg">
  <sodipodi:namedview
     id="namedview1"
     pagecolor="#ffffff"
     bordercolor="#ffffff"
     borderopacity="1"
     inkscape:showpageshadow="0"
     inkscape:pageopacity="0"
     inkscape:pagecheckerboard="false"
     inkscape:deskcolor="#505050"
     inkscape:document-units="mm"
     inkscape:zoom="8"
     inkscape:cx="8.5"
     inkscape:cy="13.1875"
     inkscape:window-width="1920"
     inkscape:window-height="1009"
     inkscape:window-x="-8"
     inkscape:window-y="-8"
     inkscape:window-maximized="1"
     inkscape:current-layer="layer2"
     showguides="true">
    <sodipodi:guide
       position="0.59735521,6.3389745"
       orientation="0,1"
       id="guide1"
       inkscape:locked="false"
       inkscape:label=""
       inkscape:color="rgb(0,134,229)" />
    <sodipodi:guide
       position="6.3582683,11.60446"
       orientation="-1,0"
       id="guide2"
       inkscape:locked="false"
       inkscape:label=""
       inkscape:color="rgb(0,134,229)" />
  </sodipodi:namedview>
  <defs
     id="defs1">
    <inkscape:path-effect
       effect="fillet_chamfer"
       id="path-effect43"
       is_visible="true"
       lpeversion="1"
       nodesatellites_param="F,0,0,1,0,0,0,1 @ F,0,0,1,0,0,0,1 @ F,0,0,1,0,0,0,1 @ F,0,0,1,0,0,0,1"
       radius="0"
       unit="px"
       method="auto"
       mode="F"
       chamfer_steps="1"
       flexible="false"
       use_knot_distance="true"
       apply_no_radius="true"
       apply_with_radius="true"
       only_selected="false"
       hide_knots="false" />
    <inkscape:path-effect
       effect="fillet_chamfer"
       id="path-effect41"
       is_visible="true"
       lpeversion="1"
       nodesatellites_param="F,0,0,1,0,0,0,1 @ F,0,0,1,0,0,0,1 @ F,0,0,1,0,0,0,1 @ F,0,0,1,0,0,0,1"
       radius="0"
       unit="px"
       method="auto"
       mode="F"
       chamfer_steps="1"
       flexible="false"
       use_knot_distance="true"
       apply_no_radius="true"
       apply_with_radius="true"
       only_selected="false"
       hide_knots="false" />
    <inkscape:path-effect
       effect="fillet_chamfer"
       id="path-effect35"
       is_visible="true"
       lpeversion="1"
       nodesatellites_param="F,0,0,1,0,0.13309718,0,1 @ F,0,0,1,0,0.16128703,0,1 @ F,0,0,1,0,0,0,1 @ F,0,0,1,0,0,0,1 | F,0,0,1,0,0,0,1 @ F,0,0,1,0,0,0,1 @ F,0,0,1,0,0,0,1 @ F,0,0,1,0,0,0,1"
       radius="0"
       unit="px"
       method="auto"
       mode="F"
       chamfer_steps="1"
       flexible="false"
       use_knot_distance="true"
       apply_no_radius="true"
       apply_with_radius="true"
       only_selected="false"
       hide_knots="false" />
    <inkscape:path-effect
       effect="fillet_chamfer"
       id="path-effect33"
       is_visible="true"
       lpeversion="1"
       nodesatellites_param="F,0,0,1,0,0.13309718,0,1 @ F,0,0,1,0,0.16128703,0,1 @ F,0,0,1,0,0,0,1 @ F,0,0,1,0,0,0,1 | F,0,0,1,0,0,0,1 @ F,0,0,1,0,0,0,1 @ F,0,0,1,0,0,0,1 @ F,0,0,1,0,0,0,1"
       radius="0"
       unit="px"
       method="auto"
       mode="F"
       chamfer_steps="1"
       flexible="false"
       use_knot_distance="true"
       apply_no_radius="true"
       apply_with_radius="true"
       only_selected="false"
       hide_knots="false" />
    <inkscape:path-effect
       effect="fillet_chamfer"
       id="path-effect31"
       is_visible="true"
       lpeversion="1"
       nodesatellites_param="F,0,0,1,0,0.13309718,0,1 @ F,0,0,1,0,0.16128703,0,1 @ F,0,0,1,0,0,0,1 @ F,0,0,1,0,0,0,1 | F,0,0,1,0,0,0,1 @ F,0,0,1,0,0,0,1 @ F,0,0,1,0,0,0,1 @ F,0,0,1,0,0,0,1"
       radius="0"
       unit="px"
       method="auto"
       mode="F"
       chamfer_steps="1"
       flexible="false"
       use_knot_distance="true"
       apply_no_radius="true"
       apply_with_radius="true"
       only_selected="false"
       hide_knots="false" />
    <inkscape:path-effect
       effect="fillet_chamfer"
       id="path-effect30"
       is_visible="true"
       lpeversion="1"
       nodesatellites_param=""
       radius="0"
       unit="px"
       method="auto"
       mode="F"
       chamfer_steps="1"
       flexible="false"
       use_knot_distance="true"
       apply_no_radius="true"
       apply_with_radius="true"
       only_selected="false"
       hide_knots="false" />
    <inkscape:path-effect
       effect="fillet_chamfer"
       id="path-effect27"
       is_visible="true"
       lpeversion="1"
       nodesatellites_param="F,0,0,1,0,0,0,1 @ F,0,0,1,0,0,0,1 @ F,0,0,1,0,0,0,1 @ F,0,0,1,0,0,0,1"
       radius="0"
       unit="px"
       method="auto"
       mode="F"
       chamfer_steps="1"
       flexible="false"
       use_knot_distance="true"
       apply_no_radius="true"
       apply_with_radius="true"
       only_selected="false"
       hide_knots="false" />
    <inkscape:path-effect
       effect="fillet_chamfer"
       id="path-effect26"
       is_visible="true"
       lpeversion="1"
       nodesatellites_param="F,0,0,1,0,0,0,1 @ F,0,0,1,0,0,0,1 @ F,0,0,1,0,0,0,1 @ F,0,0,1,0,0,0,1"
       radius="0"
       unit="px"
       method="auto"
       mode="F"
       chamfer_steps="1"
       flexible="false"
       use_knot_distance="true"
       apply_no_radius="true"
       apply_with_radius="true"
       only_selected="false"
       hide_knots="false" />
    <inkscape:path-effect
       effect="fillet_chamfer"
       id="path-effect25"
       is_visible="true"
       lpeversion="1"
       nodesatellites_param="F,0,0,1,0,0,0,1 @ F,0,0,1,0,0,0,1 @ F,0,0,1,0,0,0,1 @ F,0,0,1,0,0,0,1"
       radius="2"
       unit="px"
       method="auto"
       mode="F"
       chamfer_steps="1"
       flexible="false"
       use_knot_distance="true"
       apply_no_radius="true"
       apply_with_radius="true"
       only_selected="false"
       hide_knots="false" />
    <inkscape:path-effect
       effect="bspline"
       id="path-effect24"
       is_visible="true"
       lpeversion="1.3"
       weight="33.333333"
       steps="2"
       helper_size="0"
       apply_no_weight="true"
       apply_with_weight="true"
       only_selected="false"
       uniform="false" />
    <inkscape:path-effect
       effect="fillet_chamfer"
       id="path-effect23"
       is_visible="true"
       lpeversion="1"
       nodesatellites_param="F,0,0,1,0,0,0,1 @ F,0,0,1,0,0.15606912,0,1 @ F,0,0,1,0,0.15036109,0,1 @ F,0,0,1,0,0,0,1"
       radius="0"
       unit="px"
       method="bezier"
       mode="F"
       chamfer_steps="1"
       flexible="false"
       use_knot_distance="true"
       apply_no_radius="true"
       apply_with_radius="true"
       only_selected="false"
       hide_knots="false" />
  </defs>
  <g
     inkscape:groupmode="layer"
     id="layer2"
     inkscape:label="popcorn">
    <path
       id="path153"
       style="display:inline;fill:#ffffff;fill-opacity:1;stroke:#000000;stroke-width:0.0748409;stroke-dasharray:none;stroke-opacity:1"
       d="M 4.2911959,5.1491941 A 0.40517415,0.40517415 0 0 0 4.1428577,4.5955877 0.40517415,0.40517415 0 0 0 3.9950394,4.546112 0.34522492,0.34522492 0 0 0 3.8230992,4.2438757 0.34522492,0.34522492 0 0 0 3.351677,4.3704603 0.34522492,0.34522492 0 0 0 3.354077,4.717858 0.40930861,0.35762824 30 0 0 3.0651981,4.8827406 0.40930861,0.35762824 30 0 0 3.2407712,5.3972149 0.40930861,0.35762824 30 0 0 3.7626922,5.3103349 0.40517415,0.40517415 0 0 0 4.2911989,5.1491937 Z" />
    <path
       id="path166"
       style="fill:#ffffff;fill-opacity:1;stroke:#000000;stroke-width:0.07;stroke-dasharray:none;stroke-opacity:1"
       d="M 2.9372885,4.2912109 A 0.34933269,0.34933269 0 0 0 2.5879558,4.6405436 0.34933269,0.34933269 0 0 0 2.5962258,4.7118576 0.27698568,0.27698568 0 0 0 2.3605812,4.9857426 0.27698568,0.27698568 0 0 0 2.6375669,5.2627283 0.27698568,0.27698568 0 0 0 2.821535,5.1924483 0.33204064,0.33204064 0 0 0 3.146063,5.4585819 0.33204064,0.33204064 0 0 0 3.4783408,5.126302 0.33204064,0.33204064 0 0 0 3.2426962,4.808492 0.34933269,0.34933269 0 0 0 3.2866212,4.6405436 0.34933269,0.34933269 0 0 0 2.9372885,4.2912109 Z" />
    <g
       id="g174"
       style="fill:#ffffff;fill-opacity:1"
       transform="rotate(-105,5.3055229,3.738651)">
      <path
         id="path167"
         style="fill:#ffffff;fill-opacity:1;stroke:#000000;stroke-width:0.07;stroke-dasharray:none;stroke-opacity:1"
         d="M 5.6017252,1.2154297 A 0.29765624,0.29765624 0 0 0 5.304069,1.5130859 0.29765624,0.29765624 0 0 0 5.3045857,1.5177359 0.28008625,0.28008625 0 0 0 5.0580892,1.7952384 0.28008625,0.28008625 0 0 0 5.2523925,2.061372 0.2738851,0.2738851 0 0 0 5.2513625,2.078425 0.2738851,0.2738851 0 0 0 5.5252476,2.3523101 0.2738851,0.2738851 0 0 0 5.7738112,2.1931467 0.29042155,0.29042155 0 0 0 5.883882,2.2158847 0.29042155,0.29042155 0 0 0 6.1743036,1.9254632 0.29042155,0.29042155 0 0 0 5.883882,1.6350416 0.29042155,0.29042155 0 0 0 5.87303,1.6360716 0.29765624,0.29765624 0 0 0 5.899385,1.5130816 0.29765624,0.29765624 0 0 0 5.6017287,1.2154254 Z m 0.015503,0.594279 a 0.29765624,0.29765624 0 0 0 0.00103,0 0.29042155,0.29042155 0 0 0 -0.00155,0.0031 0.28008625,0.28008625 0 0 0 5.168e-4,-0.0031 z" />
      <path
         style="fill:#ffffff;fill-opacity:1;stroke:none;stroke-width:0.00103346;stroke-dasharray:none;stroke-opacity:1"
         d="m 21.103081,6.6854401 c -0.02079,0.025375 -0.01428,0.062246 -0.02286,0.092689 -0.0034,0.024536 -0.01646,0.060352 0.01315,0.074188 0.03549,0.01662 0.07406,0.025492 0.110961,0.038406 0.003,0.033031 -0.0043,0.067846 0.0065,0.099533 0.01747,0.02245 0.05266,0.00385 0.04798,-0.02281 0.0043,-0.016461 -0.0066,-0.053515 0.0079,-0.055964 0.02915,0.00676 0.05791,0.023557 0.08863,0.023544 0.02755,-0.01701 0.03192,-0.054007 0.04923,-0.079749 0.02249,-0.048271 0.05108,-0.094575 0.06972,-0.1440847 0.0058,-0.027093 -0.02775,-0.03483 -0.04831,-0.030622 -0.103701,7.995e-4 -0.207898,-0.00159 -0.311293,0.00118 -0.0039,0.00123 -0.0077,0.00246 -0.01157,0.00368 z"
         id="path174"
         transform="scale(0.26458333)" />
    </g>
    <path
       id="path179"
       style="display:inline;fill:#ffffff;fill-opacity:1;stroke:#000000;stroke-width:0.0748409;stroke-dasharray:none;stroke-opacity:1"
       d="m 5.566451,3.7034951 a 0.40517415,0.40517415 0 0 0 -0.5731354,-2e-7 0.40517415,0.40517415 0 0 0 -0.086048,0.1299763 0.34522492,0.34522492 0 0 0 -0.3364391,0.087857 0.34522492,0.34522492 0 0 0 2.583e-4,0.4881214 0.34522492,0.34522492 0 0 0 0.3361814,0.087595 0.35762824,0.40930861 45 0 0 0.084497,0.3217102 A 0.35762824,0.40930861 45 0 0 5.534151,4.7823198 0.35762824,0.40930861 45 0 0 5.585314,4.2556967 0.40517415,0.40517415 0 0 0 5.566451,3.7034919 Z" />
    <path
       id="path180"
       style="fill:#ffffff;fill-opacity:1;stroke:#000000;stroke-width:0.07;stroke-dasharray:none;stroke-opacity:1"
       d="m 4.3872859,4.7892067 a 0.34933269,0.34933269 0 0 0 0.2470155,0.4278436 0.34933269,0.34933269 0 0 0 0.071024,0.01047 A 0.27698568,0.27698568 0 0 0 4.908889,5.5260218 0.27698568,0.27698568 0 0 0 5.2481258,5.3301633 0.27698568,0.27698568 0 0 0 5.2278553,5.1342738 0.33204064,0.33204064 0 0 0 5.5689147,4.8896843 0.33204064,0.33204064 0 0 0 5.3339568,4.4827283 0.33204064,0.33204064 0 0 0 4.9659865,4.6280879 0.34933269,0.34933269 0 0 0 4.8151293,4.5421916 0.34933269,0.34933269 0 0 0 4.3872859,4.7892067 Z" />
    <g
       id="g182"
       style="fill:#ffffff;fill-opacity:1"
       transform="rotate(180,4.8860106,3.048653)">
      <path
         id="path181"
         style="fill:#ffffff;fill-opacity:1;stroke:#000000;stroke-width:0.07;stroke-dasharray:none;stroke-opacity:1"
         d="M 5.6017252,1.2154297 A 0.29765624,0.29765624 0 0 0 5.304069,1.5130859 0.29765624,0.29765624 0 0 0 5.3045857,1.5177359 0.28008625,0.28008625 0 0 0 5.0580892,1.7952384 0.28008625,0.28008625 0 0 0 5.2523925,2.061372 0.2738851,0.2738851 0 0 0 5.2513625,2.078425 0.2738851,0.2738851 0 0 0 5.5252476,2.3523101 0.2738851,0.2738851 0 0 0 5.7738112,2.1931467 0.29042155,0.29042155 0 0 0 5.883882,2.2158847 0.29042155,0.29042155 0 0 0 6.1743036,1.9254632 0.29042155,0.29042155 0 0 0 5.883882,1.6350416 0.29042155,0.29042155 0 0 0 5.87303,1.6360716 0.29765624,0.29765624 0 0 0 5.899385,1.5130816 0.29765624,0.29765624 0 0 0 5.6017287,1.2154254 Z m 0.015503,0.594279 a 0.29765624,0.29765624 0 0 0 0.00103,0 0.29042155,0.29042155 0 0 0 -0.00155,0.0031 0.28008625,0.28008625 0 0 0 5.168e-4,-0.0031 z" />
      <path
         style="fill:#ffffff;fill-opacity:1;stroke:none;stroke-width:0.00103346;stroke-dasharray:none;stroke-opacity:1"
         d="m 21.103081,6.6854401 c -0.02079,0.025375 -0.01428,0.062246 -0.02286,0.092689 -0.0034,0.024536 -0.01646,0.060352 0.01315,0.074188 0.03549,0.01662 0.07406,0.025492 0.110961,0.038406 0.003,0.033031 -0.0043,0.067846 0.0065,0.099533 0.01747,0.02245 0.05266,0.00385 0.04798,-0.02281 0.0043,-0.016461 -0.0066,-0.053515 0.0079,-0.055964 0.02915,0.00676 0.05791,0.023557 0.08863,0.023544 0.02755,-0.01701 0.03192,-0.054007 0.04923,-0.079749 0.02249,-0.048271 0.05108,-0.094575 0.06972,-0.1440847 0.0058,-0.027093 -0.02775,-0.03483 -0.04831,-0.030622 -0.103701,7.995e-4 -0.207898,-0.00159 -0.311293,0.00118 -0.0039,0.00123 -0.0077,0.00246 -0.01157,0.00368 z"
         id="path182"
         transform="scale(0.26458333)" />
    </g>
    <path
       id="path183"
       style="display:inline;fill:#ffffff;fill-opacity:1;stroke:#000000;stroke-width:0.0748409;stroke-dasharray:none;stroke-opacity:1"
       d="m 7.1870239,4.1499795 a 0.40517415,0.40517415 0 0 0 -0.5731354,-2e-7 0.40517415,0.40517415 0 0 0 -0.086048,0.1299763 0.34522492,0.34522492 0 0 0 -0.3364391,0.087857 0.34522492,0.34522492 0 0 0 2.583e-4,0.4881214 0.34522492,0.34522492 0 0 0 0.3361814,0.087595 0.35762824,0.40930861 45 0 0 0.084497,0.3217102 0.35762824,0.40930861 45 0 0 0.5423858,-0.036435 0.35762824,0.40930861 45 0 0 0.051163,-0.5266231 0.40517415,0.40517415 0 0 0 -0.018863,-0.5522048 z" />
    <path
       id="path184"
       style="fill:#ffffff;fill-opacity:1;stroke:#000000;stroke-width:0.07;stroke-dasharray:none;stroke-opacity:1"
       d="m 6.0078588,5.2356911 a 0.34933269,0.34933269 0 0 0 0.2470155,0.4278436 0.34933269,0.34933269 0 0 0 0.071024,0.01047 A 0.27698568,0.27698568 0 0 0 6.5294619,5.9725062 0.27698568,0.27698568 0 0 0 6.8686987,5.7766477 0.27698568,0.27698568 0 0 0 6.8484282,5.5807582 0.33204064,0.33204064 0 0 0 7.1894876,5.3361687 0.33204064,0.33204064 0 0 0 6.9545297,4.9292127 0.33204064,0.33204064 0 0 0 6.5865594,5.0745723 0.34933269,0.34933269 0 0 0 6.4357022,4.988676 0.34933269,0.34933269 0 0 0 6.0078588,5.2356911 Z" />
    <g
       id="g186"
       style="fill:#ffffff;fill-opacity:1"
       transform="rotate(180,5.6962971,3.2718952)">
      <path
         id="path185"
         style="fill:#ffffff;fill-opacity:1;stroke:#000000;stroke-width:0.07;stroke-dasharray:none;stroke-opacity:1"
         d="M 5.6017252,1.2154297 A 0.29765624,0.29765624 0 0 0 5.304069,1.5130859 0.29765624,0.29765624 0 0 0 5.3045857,1.5177359 0.28008625,0.28008625 0 0 0 5.0580892,1.7952384 0.28008625,0.28008625 0 0 0 5.2523925,2.061372 0.2738851,0.2738851 0 0 0 5.2513625,2.078425 0.2738851,0.2738851 0 0 0 5.5252476,2.3523101 0.2738851,0.2738851 0 0 0 5.7738112,2.1931467 0.29042155,0.29042155 0 0 0 5.883882,2.2158847 0.29042155,0.29042155 0 0 0 6.1743036,1.9254632 0.29042155,0.29042155 0 0 0 5.883882,1.6350416 0.29042155,0.29042155 0 0 0 5.87303,1.6360716 0.29765624,0.29765624 0 0 0 5.899385,1.5130816 0.29765624,0.29765624 0 0 0 5.6017287,1.2154254 Z m 0.015503,0.594279 a 0.29765624,0.29765624 0 0 0 0.00103,0 0.29042155,0.29042155 0 0 0 -0.00155,0.0031 0.28008625,0.28008625 0 0 0 5.168e-4,-0.0031 z" />
      <path
         style="fill:#ffffff;fill-opacity:1;stroke:none;stroke-width:0.00103346;stroke-dasharray:none;stroke-opacity:1"
         d="m 21.103081,6.6854401 c -0.02079,0.025375 -0.01428,0.062246 -0.02286,0.092689 -0.0034,0.024536 -0.01646,0.060352 0.01315,0.074188 0.03549,0.01662 0.07406,0.025492 0.110961,0.038406 0.003,0.033031 -0.0043,0.067846 0.0065,0.099533 0.01747,0.02245 0.05266,0.00385 0.04798,-0.02281 0.0043,-0.016461 -0.0066,-0.053515 0.0079,-0.055964 0.02915,0.00676 0.05791,0.023557 0.08863,0.023544 0.02755,-0.01701 0.03192,-0.054007 0.04923,-0.079749 0.02249,-0.048271 0.05108,-0.094575 0.06972,-0.1440847 0.0058,-0.027093 -0.02775,-0.03483 -0.04831,-0.030622 -0.103701,7.995e-4 -0.207898,-0.00159 -0.311293,0.00118 -0.0039,0.00123 -0.0077,0.00246 -0.01157,0.00368 z"
         id="path186"
         transform="scale(0.26458333)" />
    </g>
    <path
       id="path187"
       style="display:inline;fill:#ffffff;fill-opacity:1;stroke:#000000;stroke-width:0.0748409;stroke-dasharray:none;stroke-opacity:1"
       d="m 7.1870239,4.1499795 a 0.40517415,0.40517415 0 0 0 -0.5731354,-2e-7 0.40517415,0.40517415 0 0 0 -0.086048,0.1299763 0.34522492,0.34522492 0 0 0 -0.3364391,0.087857 0.34522492,0.34522492 0 0 0 2.583e-4,0.4881214 0.34522492,0.34522492 0 0 0 0.3361814,0.087595 0.35762824,0.40930861 45 0 0 0.084497,0.3217102 0.35762824,0.40930861 45 0 0 0.5423858,-0.036435 0.35762824,0.40930861 45 0 0 0.051163,-0.5266231 0.40517415,0.40517415 0 0 0 -0.018863,-0.5522048 z" />
    <path
       id="path188"
       style="fill:#ffffff;fill-opacity:1;stroke:#000000;stroke-width:0.07;stroke-dasharray:none;stroke-opacity:1"
       d="m 6.0078588,5.2356911 a 0.34933269,0.34933269 0 0 0 0.2470155,0.4278436 0.34933269,0.34933269 0 0 0 0.071024,0.01047 A 0.27698568,0.27698568 0 0 0 6.5294619,5.9725062 0.27698568,0.27698568 0 0 0 6.8686987,5.7766477 0.27698568,0.27698568 0 0 0 6.8484282,5.5807582 0.33204064,0.33204064 0 0 0 7.1894876,5.3361687 0.33204064,0.33204064 0 0 0 6.9545297,4.9292127 0.33204064,0.33204064 0 0 0 6.5865594,5.0745723 0.34933269,0.34933269 0 0 0 6.4357022,4.988676 0.34933269,0.34933269 0 0 0 6.0078588,5.2356911 Z" />
    <g
       id="g190"
       style="fill:#ffffff;fill-opacity:1"
       transform="rotate(180,5.6962971,3.2718952)">
      <path
         id="path189"
         style="fill:#ffffff;fill-opacity:1;stroke:#000000;stroke-width:0.07;stroke-dasharray:none;stroke-opacity:1"
         d="M 5.6017252,1.2154297 A 0.29765624,0.29765624 0 0 0 5.304069,1.5130859 0.29765624,0.29765624 0 0 0 5.3045857,1.5177359 0.28008625,0.28008625 0 0 0 5.0580892,1.7952384 0.28008625,0.28008625 0 0 0 5.2523925,2.061372 0.2738851,0.2738851 0 0 0 5.2513625,2.078425 0.2738851,0.2738851 0 0 0 5.5252476,2.3523101 0.2738851,0.2738851 0 0 0 5.7738112,2.1931467 0.29042155,0.29042155 0 0 0 5.883882,2.2158847 0.29042155,0.29042155 0 0 0 6.1743036,1.9254632 0.29042155,0.29042155 0 0 0 5.883882,1.6350416 0.29042155,0.29042155 0 0 0 5.87303,1.6360716 0.29765624,0.29765624 0 0 0 5.899385,1.5130816 0.29765624,0.29765624 0 0 0 5.6017287,1.2154254 Z m 0.015503,0.594279 a 0.29765624,0.29765624 0 0 0 0.00103,0 0.29042155,0.29042155 0 0 0 -0.00155,0.0031 0.28008625,0.28008625 0 0 0 5.168e-4,-0.0031 z" />
      <path
         style="fill:#ffffff;fill-opacity:1;stroke:none;stroke-width:0.00103346;stroke-dasharray:none;stroke-opacity:1"
         d="m 21.103081,6.6854401 c -0.02079,0.025375 -0.01428,0.062246 -0.02286,0.092689 -0.0034,0.024536 -0.01646,0.060352 0.01315,0.074188 0.03549,0.01662 0.07406,0.025492 0.110961,0.038406 0.003,0.033031 -0.0043,0.067846 0.0065,0.099533 0.01747,0.02245 0.05266,0.00385 0.04798,-0.02281 0.0043,-0.016461 -0.0066,-0.053515 0.0079,-0.055964 0.02915,0.00676 0.05791,0.023557 0.08863,0.023544 0.02755,-0.01701 0.03192,-0.054007 0.04923,-0.079749 0.02249,-0.048271 0.05108,-0.094575 0.06972,-0.1440847 0.0058,-0.027093 -0.02775,-0.03483 -0.04831,-0.030622 -0.103701,7.995e-4 -0.207898,-0.00159 -0.311293,0.00118 -0.0039,0.00123 -0.0077,0.00246 -0.01157,0.00368 z"
         id="path190"
         transform="scale(0.26458333)" />
    </g>
    <path
       id="path191"
       style="display:inline;fill:#ffffff;fill-opacity:1;stroke:#000000;stroke-width:0.0748409;stroke-dasharray:none;stroke-opacity:1"
       d="M 8.34085,4.8357537 A 0.40517415,0.40517415 0 0 0 8.8371997,5.1223214 0.40517415,0.40517415 0 0 0 8.9767068,5.0527812 0.34522492,0.34522492 0 0 0 9.3120002,5.1449143 0.34522492,0.34522492 0 0 0 9.555838,4.7220612 0.34522492,0.34522492 0 0 0 9.3084939,4.4781111 0.35762824,0.40930861 75 0 0 9.3961725,4.1572533 0.35762824,0.40930861 75 0 0 8.9082354,3.9176142 0.35762824,0.40930861 75 0 0 8.6006153,4.3481016 0.40517415,0.40517415 0 0 0 8.3408486,4.8357567 Z" />
    <path
       id="path192"
       style="fill:#ffffff;fill-opacity:1;stroke:#000000;stroke-width:0.07;stroke-dasharray:none;stroke-opacity:1"
       d="m 9.9048927,4.4850823 a 0.34933269,0.34933269 0 0 0 1e-7,-0.4940312 0.34933269,0.34933269 0 0 0 -0.056274,-0.044579 0.27698568,0.27698568 0 0 0 -0.027041,-0.3602915 0.27698568,0.27698568 0 0 0 -0.3917166,-10e-8 0.27698568,0.27698568 0 0 0 -0.08039,0.1797806 0.33204064,0.33204064 0 0 0 -0.4176609,0.041291 0.33204064,0.33204064 0 0 0 1.6e-6,0.4699134 0.33204064,0.33204064 0 0 0 0.3913513,0.0581 0.34933269,0.34933269 0 0 0 0.087698,0.1498171 0.34933269,0.34933269 0 0 0 0.4940315,-3e-7 z" />
    <g
       id="g194"
       style="fill:#ffffff;fill-opacity:1"
       transform="rotate(45,3.6767597,8.4085477)">
      <path
         id="path193"
         style="fill:#ffffff;fill-opacity:1;stroke:#000000;stroke-width:0.07;stroke-dasharray:none;stroke-opacity:1"
         d="M 5.6017252,1.2154297 A 0.29765624,0.29765624 0 0 0 5.304069,1.5130859 0.29765624,0.29765624 0 0 0 5.3045857,1.5177359 0.28008625,0.28008625 0 0 0 5.0580892,1.7952384 0.28008625,0.28008625 0 0 0 5.2523925,2.061372 0.2738851,0.2738851 0 0 0 5.2513625,2.078425 0.2738851,0.2738851 0 0 0 5.5252476,2.3523101 0.2738851,0.2738851 0 0 0 5.7738112,2.1931467 0.29042155,0.29042155 0 0 0 5.883882,2.2158847 0.29042155,0.29042155 0 0 0 6.1743036,1.9254632 0.29042155,0.29042155 0 0 0 5.883882,1.6350416 0.29042155,0.29042155 0 0 0 5.87303,1.6360716 0.29765624,0.29765624 0 0 0 5.899385,1.5130816 0.29765624,0.29765624 0 0 0 5.6017287,1.2154254 Z m 0.015503,0.594279 a 0.29765624,0.29765624 0 0 0 0.00103,0 0.29042155,0.29042155 0 0 0 -0.00155,0.0031 0.28008625,0.28008625 0 0 0 5.168e-4,-0.0031 z" />
      <path
         style="fill:#ffffff;fill-opacity:1;stroke:none;stroke-width:0.00103346;stroke-dasharray:none;stroke-opacity:1"
         d="m 21.103081,6.6854401 c -0.02079,0.025375 -0.01428,0.062246 -0.02286,0.092689 -0.0034,0.024536 -0.01646,0.060352 0.01315,0.074188 0.03549,0.01662 0.07406,0.025492 0.110961,0.038406 0.003,0.033031 -0.0043,0.067846 0.0065,0.099533 0.01747,0.02245 0.05266,0.00385 0.04798,-0.02281 0.0043,-0.016461 -0.0066,-0.053515 0.0079,-0.055964 0.02915,0.00676 0.05791,0.023557 0.08863,0.023544 0.02755,-0.01701 0.03192,-0.054007 0.04923,-0.079749 0.02249,-0.048271 0.05108,-0.094575 0.06972,-0.1440847 0.0058,-0.027093 -0.02775,-0.03483 -0.04831,-0.030622 -0.103701,7.995e-4 -0.207898,-0.00159 -0.311293,0.00118 -0.0039,0.00123 -0.0077,0.00246 -0.01157,0.00368 z"
         id="path194"
         transform="scale(0.26458333)" />
    </g>
    <path
       id="path195"
       style="display:inline;fill:#ffffff;fill-opacity:1;stroke:#000000;stroke-width:0.0748409;stroke-dasharray:none;stroke-opacity:1"
       d="M 7.1548582,4.911001 A 0.40517415,0.40517415 0 0 0 7.651208,5.1975691 0.40517415,0.40517415 0 0 0 7.790715,5.1280289 0.34522492,0.34522492 0 0 0 8.1260084,5.2201621 0.34522492,0.34522492 0 0 0 8.3698462,4.7973088 0.34522492,0.34522492 0 0 0 8.122502,4.5533586 0.35762824,0.40930861 75 0 0 8.2101805,4.2325009 0.35762824,0.40930861 75 0 0 7.7222433,3.9928619 0.35762824,0.40930861 75 0 0 7.4146233,4.4233493 0.40517415,0.40517415 0 0 0 7.1548567,4.9110043 Z" />
    <g
       id="g197"
       style="fill:#ffffff;fill-opacity:1"
       transform="rotate(180,4.86534,2.6559121)">
      <path
         id="path196"
         style="fill:#ffffff;fill-opacity:1;stroke:#000000;stroke-width:0.07;stroke-dasharray:none;stroke-opacity:1"
         d="M 5.6017252,1.2154297 A 0.29765624,0.29765624 0 0 0 5.304069,1.5130859 0.29765624,0.29765624 0 0 0 5.3045857,1.5177359 0.28008625,0.28008625 0 0 0 5.0580892,1.7952384 0.28008625,0.28008625 0 0 0 5.2523925,2.061372 0.2738851,0.2738851 0 0 0 5.2513625,2.078425 0.2738851,0.2738851 0 0 0 5.5252476,2.3523101 0.2738851,0.2738851 0 0 0 5.7738112,2.1931467 0.29042155,0.29042155 0 0 0 5.883882,2.2158847 0.29042155,0.29042155 0 0 0 6.1743036,1.9254632 0.29042155,0.29042155 0 0 0 5.883882,1.6350416 0.29042155,0.29042155 0 0 0 5.87303,1.6360716 0.29765624,0.29765624 0 0 0 5.899385,1.5130816 0.29765624,0.29765624 0 0 0 5.6017287,1.2154254 Z m 0.015503,0.594279 a 0.29765624,0.29765624 0 0 0 0.00103,0 0.29042155,0.29042155 0 0 0 -0.00155,0.0031 0.28008625,0.28008625 0 0 0 5.168e-4,-0.0031 z" />
      <path
         style="fill:#ffffff;fill-opacity:1;stroke:none;stroke-width:0.00103346;stroke-dasharray:none;stroke-opacity:1"
         d="m 21.103081,6.6854401 c -0.02079,0.025375 -0.01428,0.062246 -0.02286,0.092689 -0.0034,0.024536 -0.01646,0.060352 0.01315,0.074188 0.03549,0.01662 0.07406,0.025492 0.110961,0.038406 0.003,0.033031 -0.0043,0.067846 0.0065,0.099533 0.01747,0.02245 0.05266,0.00385 0.04798,-0.02281 0.0043,-0.016461 -0.0066,-0.053515 0.0079,-0.055964 0.02915,0.00676 0.05791,0.023557 0.08863,0.023544 0.02755,-0.01701 0.03192,-0.054007 0.04923,-0.079749 0.02249,-0.048271 0.05108,-0.094575 0.06972,-0.1440847 0.0058,-0.027093 -0.02775,-0.03483 -0.04831,-0.030622 -0.103701,7.995e-4 -0.207898,-0.00159 -0.311293,0.00118 -0.0039,0.00123 -0.0077,0.00246 -0.01157,0.00368 z"
         id="path197"
         transform="scale(0.26458333)" />
    </g>
    <path
       id="path198"
       style="display:inline;fill:#ffffff;fill-opacity:1;stroke:#000000;stroke-width:0.0748409;stroke-dasharray:none;stroke-opacity:1"
       d="M 7.7273569,3.5365113 A 0.40517415,0.40517415 0 0 0 7.5790182,4.0901177 0.40517415,0.40517415 0 0 0 7.6822948,4.2068739 0.34522492,0.34522492 0 0 0 7.6800813,4.5545883 0.34522492,0.34522492 0 0 0 8.1516373,4.6806738 0.34522492,0.34522492 0 0 0 8.3232577,4.3786187 0.40930861,0.35762824 60 0 0 8.6558753,4.3802656 0.40930861,0.35762824 60 0 0 8.7610616,3.8469312 0.40930861,0.35762824 60 0 0 8.2656248,3.6612114 0.40517415,0.40517415 0 0 0 7.7273537,3.5365106 Z" />
    <path
       id="path199"
       style="display:inline;fill:#ffffff;fill-opacity:1;stroke:#000000;stroke-width:0.0748409;stroke-dasharray:none;stroke-opacity:1"
       d="M 8.9938207,2.7929875 A 0.40517415,0.40517415 0 0 0 8.4402141,2.9413257 0.40517415,0.40517415 0 0 0 8.3907386,3.0891439 0.34522492,0.34522492 0 0 0 8.0885024,3.2610841 0.34522492,0.34522492 0 0 0 8.2150871,3.7325064 0.34522492,0.34522492 0 0 0 8.5624846,3.7301064 0.35762824,0.40930861 30 0 0 8.7273672,4.0189852 0.35762824,0.40930861 30 0 0 9.2418415,3.843412 0.35762824,0.40930861 30 0 0 9.1549612,3.3214912 0.40517415,0.40517415 0 0 0 8.9938198,2.7929843 Z" />
    <path
       id="path200"
       style="display:inline;fill:#ffffff;fill-opacity:1;stroke:#000000;stroke-width:0.0748409;stroke-dasharray:none;stroke-opacity:1"
       d="M 7.2905655,3.1650578 A 0.40517415,0.40517415 0 0 0 6.7369589,3.313396 0.40517415,0.40517415 0 0 0 6.6874834,3.4612142 0.34522492,0.34522492 0 0 0 6.3852472,3.6331544 0.34522492,0.34522492 0 0 0 6.5118319,4.1045767 0.34522492,0.34522492 0 0 0 6.8592294,4.1021767 0.35762824,0.40930861 30 0 0 7.024112,4.3910555 0.35762824,0.40930861 30 0 0 7.5385863,4.2154823 0.35762824,0.40930861 30 0 0 7.451706,3.6935615 0.40517415,0.40517415 0 0 0 7.2905646,3.1650546 Z" />
    <path
       id="path201"
       style="display:inline;fill:#ffffff;fill-opacity:1;stroke:#000000;stroke-width:0.0748409;stroke-dasharray:none;stroke-opacity:1"
       d="M 5.9360212,3.295408 A 0.40517415,0.40517415 0 0 0 5.6494531,3.7917578 0.40517415,0.40517415 0 0 0 5.7189919,3.9312655 0.34522492,0.34522492 0 0 0 5.6268587,4.266559 0.34522492,0.34522492 0 0 0 6.0497135,4.5103959 0.34522492,0.34522492 0 0 0 6.2936636,4.2630517 0.40930861,0.35762824 75 0 0 6.6145214,4.3507302 0.40930861,0.35762824 75 0 0 6.8541607,3.8627929 0.40930861,0.35762824 75 0 0 6.4236733,3.5551729 0.40517415,0.40517415 0 0 0 5.9360183,3.2954063 Z" />
    <path
       id="path202"
       style="display:inline;fill:#ffffff;fill-opacity:1;stroke:#000000;stroke-width:0.0748409;stroke-dasharray:none;stroke-opacity:1"
       d="M 4.8032738,2.8737283 A 0.40517415,0.40517415 0 0 0 4.5167057,3.3700781 0.40517415,0.40517415 0 0 0 4.5862445,3.5095858 0.34522492,0.34522492 0 0 0 4.4941113,3.8448793 0.34522492,0.34522492 0 0 0 4.9169661,4.0887162 0.34522492,0.34522492 0 0 0 5.1609162,3.841372 0.40930861,0.35762824 75 0 0 5.481774,3.9290505 0.40930861,0.35762824 75 0 0 5.7214133,3.4411132 0.40930861,0.35762824 75 0 0 5.2909259,3.1334932 0.40517415,0.40517415 0 0 0 4.8032709,2.8737266 Z" />
    <path
       id="path203"
       style="display:inline;fill:#ffffff;fill-opacity:1;stroke:#000000;stroke-width:0.0748409;stroke-dasharray:none;stroke-opacity:1"
       d="M 6.6972506,3.4542071 A 0.40517415,0.40517415 0 0 0 6.5489124,2.9006007 0.40517415,0.40517415 0 0 0 6.4010941,2.851125 0.34522492,0.34522492 0 0 0 6.2291539,2.5488887 0.34522492,0.34522492 0 0 0 5.7577317,2.6754733 a 0.34522492,0.34522492 0 0 0 0.0024,0.3473977 0.40930861,0.35762824 30 0 0 -0.2888789,0.1648826 0.40930861,0.35762824 30 0 0 0.1755731,0.5144743 0.40930861,0.35762824 30 0 0 0.521921,-0.08688 0.40517415,0.40517415 0 0 0 0.5285067,-0.1611412 z" />
    <g
       id="g205"
       style="fill:#ffffff;fill-opacity:1"
       transform="rotate(-150,6.8495729,2.2312373)">
      <path
         id="path204"
         style="fill:#ffffff;fill-opacity:1;stroke:#000000;stroke-width:0.07;stroke-dasharray:none;stroke-opacity:1"
         d="M 5.6017252,1.2154297 A 0.29765624,0.29765624 0 0 0 5.304069,1.5130859 0.29765624,0.29765624 0 0 0 5.3045857,1.5177359 0.28008625,0.28008625 0 0 0 5.0580892,1.7952384 0.28008625,0.28008625 0 0 0 5.2523925,2.061372 0.2738851,0.2738851 0 0 0 5.2513625,2.078425 0.2738851,0.2738851 0 0 0 5.5252476,2.3523101 0.2738851,0.2738851 0 0 0 5.7738112,2.1931467 0.29042155,0.29042155 0 0 0 5.883882,2.2158847 0.29042155,0.29042155 0 0 0 6.1743036,1.9254632 0.29042155,0.29042155 0 0 0 5.883882,1.6350416 0.29042155,0.29042155 0 0 0 5.87303,1.6360716 0.29765624,0.29765624 0 0 0 5.899385,1.5130816 0.29765624,0.29765624 0 0 0 5.6017287,1.2154254 Z m 0.015503,0.594279 a 0.29765624,0.29765624 0 0 0 0.00103,0 0.29042155,0.29042155 0 0 0 -0.00155,0.0031 0.28008625,0.28008625 0 0 0 5.168e-4,-0.0031 z" />
      <path
         style="fill:#ffffff;fill-opacity:1;stroke:none;stroke-width:0.00103346;stroke-dasharray:none;stroke-opacity:1"
         d="m 21.103081,6.6854401 c -0.02079,0.025375 -0.01428,0.062246 -0.02286,0.092689 -0.0034,0.024536 -0.01646,0.060352 0.01315,0.074188 0.03549,0.01662 0.07406,0.025492 0.110961,0.038406 0.003,0.033031 -0.0043,0.067846 0.0065,0.099533 0.01747,0.02245 0.05266,0.00385 0.04798,-0.02281 0.0043,-0.016461 -0.0066,-0.053515 0.0079,-0.055964 0.02915,0.00676 0.05791,0.023557 0.08863,0.023544 0.02755,-0.01701 0.03192,-0.054007 0.04923,-0.079749 0.02249,-0.048271 0.05108,-0.094575 0.06972,-0.1440847 0.0058,-0.027093 -0.02775,-0.03483 -0.04831,-0.030622 -0.103701,7.995e-4 -0.207898,-0.00159 -0.311293,0.00118 -0.0039,0.00123 -0.0077,0.00246 -0.01157,0.00368 z"
         id="path205"
         transform="scale(0.26458333)" />
    </g>
  </g>
  <g
     inkscape:label="bucket"
     inkscape:groupmode="layer"
     id="layer1"
     style="display:inline">
    <path
       id="path3"
       style="fill:#ffffff;fill-opacity:0;stroke:#000000;stroke-width:0.153987;stroke-opacity:1"
       d="m 2.7083618,5.4652995 1.7151408,6.4011595 h 1.9301148 0.00723 1.9301147 L 10.006108,5.4652995 h -3.6452559 -0.00723 z" />
    <path
       style="fill:#000000;fill-opacity:0;stroke:#000000;stroke-width:0;stroke-dasharray:none;stroke-opacity:1"
       d="M 6.3587407,5.3940844 H 2.443035 V 5.2000115 h 3.9042897 v -0.017124"
       id="path40" />
    <path
       style="fill:#ffffff;fill-opacity:1;stroke:#000000;stroke-width:0.105833;stroke-dasharray:none;stroke-opacity:1"
       d="M 6.3530326,5.4397487 H 2.3517066 V 5.1086832 h 4.001326"
       id="path41"
       inkscape:path-effect="#path-effect41"
       inkscape:original-d="M 6.3530326,5.4397487 H 2.3517066 V 5.1086832 h 4.001326" />
    <path
       style="fill:#ffffff;fill-opacity:1;stroke:#000000;stroke-width:0.105833;stroke-dasharray:none;stroke-opacity:1"
       d="M 6.3530326,5.4397487 H 2.3517066 V 5.1086832 h 4.001326"
       id="path42"
       transform="matrix(-1,0,0,1,12.693105,0)"
       inkscape:original-d="M 6.3530326,5.4397487 H 2.3517066 V 5.1086832 h 4.001326"
       inkscape:path-effect="#path-effect43" />
    <path
       style="fill:#000000;fill-opacity:1;stroke:#000000;stroke-width:0.105833;stroke-dasharray:none;stroke-opacity:1"
       d="M 5.9845359,11.807031 5.7162843,5.4433319"
       id="path142"
       sodipodi:nodetypes="cc" />
    <path
       style="fill:#000000;fill-opacity:1;stroke:#000000;stroke-width:0.105833;stroke-dasharray:none;stroke-opacity:1"
       d="M 4.8947916,11.840104 3.571875,5.4901041"
       id="path144" />
    <path
       style="fill:#000000;fill-opacity:1;stroke:#000000;stroke-width:0.105833;stroke-dasharray:none;stroke-opacity:1"
       d="M 5.3578124,11.873177 4.5309895,5.5066406"
       id="path145" />
    <path
       style="fill:#000000;fill-opacity:1;stroke:#000000;stroke-width:0.105833;stroke-dasharray:none;stroke-opacity:1"
       d="M 6.701942,11.873177 6.8824958,5.4860916"
       id="path146"
       sodipodi:nodetypes="cc" />
    <path
       style="fill:#000000;fill-opacity:1;stroke:#000000;stroke-width:0.105833;stroke-dasharray:none;stroke-opacity:1"
       d="M 7.7566072,11.90625 9.0970634,5.5094777"
       id="path147"
       sodipodi:nodetypes="cc" />
    <path
       style="fill:#000000;fill-opacity:1;stroke:#000000;stroke-width:0.105833;stroke-dasharray:none;stroke-opacity:1"
       d="M 7.2935864,11.939323 8.1321023,5.5084747"
       id="path148"
       sodipodi:nodetypes="cc" />
    <path
       style="fill:#000000;fill-opacity:1;stroke:#000000;stroke-width:0.025;stroke-dasharray:none;stroke-opacity:1"
       d="m 11.095825,20.845703 c -0.189771,-0.0042 -0.656593,-0.03681 -0.52709,0.286304 2.101204,7.817697 4.183692,15.640476 6.288809,23.457104 0.289422,0.171308 0.714187,0.02545 1.05542,0.07336 0.411405,0.128891 0.502784,-0.178115 0.355488,-0.49485 -1.610249,-7.740107 -3.22375,-15.479537 -4.835835,-23.219262 -0.293605,-0.186126 -0.743674,-0.03576 -1.096603,-0.09198 -0.413382,-0.0046 -0.826769,-0.01191 -1.240189,-0.01068 z"
       id="path149"
       transform="scale(0.26458333)" />
    <path
       style="fill:#000000;fill-opacity:1;stroke:#000000;stroke-width:0.025;stroke-dasharray:none;stroke-opacity:1"
       d="m 18.807739,20.838135 c -0.488233,0.04517 -1.022816,-0.07648 -1.487793,0.09473 -0.11117,0.310714 0.07633,0.684671 0.06767,1.015097 0.968694,7.510704 1.926703,15.023709 2.931233,22.529337 0.137858,0.303251 0.582041,0.129261 0.835937,0.184887 0.430311,-0.02108 0.880974,0.04764 1.297363,-0.03608 0.05121,-1.274511 -0.08338,-2.565414 -0.108056,-3.845779 -0.260405,-6.593613 -0.574687,-13.185919 -0.806616,-19.780076 -0.07995,-0.346722 -0.641241,-0.0784 -0.912476,-0.16272 -0.605754,6.8e-5 -1.211508,-3.05e-4 -1.817261,6.11e-4 z"
       id="path150"
       transform="scale(0.26458333)" />
    <path
       style="fill:#000000;fill-opacity:1;stroke:#000000;stroke-width:0.025;stroke-dasharray:none;stroke-opacity:1"
       d="m 27.813477,20.838379 c -0.544037,0.03904 -1.123471,-0.06347 -1.648682,0.09192 -0.124204,0.60646 -0.04942,1.273924 -0.101333,1.901847 -0.205186,7.218633 -0.432028,14.437876 -0.598008,21.656869 0.123589,0.289068 0.551076,0.11928 0.789673,0.17317 0.413477,-0.02517 0.854287,0.04955 1.253052,-0.0533 0.386304,-2.617058 0.689251,-5.260055 1.044966,-7.886836 0.686969,-5.256709 1.362887,-10.514929 2.060014,-15.770269 -0.209095,-0.260094 -0.714593,-0.04315 -1.036499,-0.114258 -0.587728,1.15e-4 -1.175456,-4.63e-4 -1.763183,8.55e-4 z"
       id="path151"
       transform="scale(0.26458333)" />
    <path
       style="fill:#000000;fill-opacity:1;stroke:#000000;stroke-width:0.025;stroke-dasharray:none;stroke-opacity:1"
       d="m 34.495727,20.873901 c -1.595528,7.462249 -3.134206,14.942633 -4.711836,22.411022 -0.0556,0.422171 -0.238423,0.845829 -0.232988,1.267323 0.238004,0.222223 0.64088,0.05423 0.934937,0.11023 0.306465,-0.02388 0.818577,0.141161 0.788574,-0.341065 2.069693,-7.774169 4.17604,-15.543882 6.239746,-23.317749 -0.126446,-0.26534 -0.525152,-0.113673 -0.758544,-0.164068 -0.750151,0.01821 -1.523847,-0.04821 -2.259889,0.03431 z"
       id="path152"
       transform="scale(0.26458333)" />
    <path
       style="fill:#ffffff;fill-opacity:1;stroke:none;stroke-width:0.0116923;stroke-dasharray:none;stroke-opacity:1"
       d="m 14.900515,20.922143 c -0.383713,0.02424 -0.788738,-0.03797 -1.161824,0.05404 0.159845,0.927953 0.38854,1.865748 0.572402,2.797481 1.44792,6.925593 2.887824,13.852853 4.33108,20.77942 0.420054,0.03059 0.877359,0.04325 1.306576,-0.0054 0.137634,-0.102012 -0.01335,-0.323871 0.0085,-0.46541 -0.984713,-7.681472 -1.974674,-15.362345 -2.985123,-23.040452 -0.07289,-0.257723 -0.4945,-0.05676 -0.710386,-0.120326 -0.453739,8.3e-5 -0.907478,-3.26e-4 -1.361215,6.04e-4 z"
       id="path176"
       transform="scale(0.26458333)" />
    <path
       style="fill:#ffffff;fill-opacity:1;stroke:none;stroke-width:0.0116923;stroke-dasharray:none;stroke-opacity:1"
       d="m 23.200905,20.921884 c -0.453699,0.026 -0.926022,-0.04458 -1.370364,0.05369 -0.06969,0.230273 0.02348,0.51188 0.0039,0.757445 0.310999,7.563974 0.648058,15.131286 0.943195,22.693175 -0.0024,0.299069 0.480419,0.08212 0.689462,0.148033 0.559793,0 1.119586,0 1.679379,0 0.0623,-0.606169 0.03611,-1.263829 0.06828,-1.889779 0.203112,-7.211958 0.388591,-14.424568 0.619801,-21.635642 -0.0128,-0.269002 -0.483715,-0.06246 -0.685144,-0.127266 -0.649505,4.4e-5 -1.29901,-1.79e-4 -1.948515,3.45e-4 z"
       id="path177"
       transform="scale(0.26458333)" />
    <path
       style="fill:#ffffff;fill-opacity:1;stroke:none;stroke-width:0.0116923;stroke-dasharray:none;stroke-opacity:1"
       d="m 31.664003,20.929567 c -0.24265,0.02387 -0.521637,-0.03872 -0.747071,0.03591 -1.064814,7.855111 -2.052895,15.720861 -3.101792,23.57811 0.428176,0.07125 0.917418,0.0101 1.368983,0.03064 0.140215,-0.24566 0.141385,-0.612632 0.228053,-0.90472 1.585086,-7.564645 3.170177,-15.129289 4.755272,-22.693933 -0.390551,-0.07677 -0.847121,-0.01688 -1.263126,-0.04095 -0.413433,-0.0032 -0.826871,-0.0061 -1.240319,-0.0051 z"
       id="path178"
       transform="scale(0.26458333)" />
  </g>
</svg>
