<?xml version="1.0" encoding="UTF-8" standalone="no"?>
<!-- Created with Inkscape (http://www.inkscape.org/) -->

<svg
   width="48"
   height="48"
   viewBox="0 0 12.7 12.7"
   version="1.1"
   id="svg1"
   inkscape:version="1.3.2 (091e20e, 2023-11-25, custom)"
   sodipodi:docname="food.svg"
   xml:space="preserve"
   xmlns:inkscape="http://www.inkscape.org/namespaces/inkscape"
   xmlns:sodipodi="http://sodipodi.sourceforge.net/DTD/sodipodi-0.dtd"
   xmlns="http://www.w3.org/2000/svg"
   xmlns:svg="http://www.w3.org/2000/svg"><sodipodi:namedview
     id="namedview1"
     pagecolor="#ffffff"
     bordercolor="#ffffff"
     borderopacity="1"
     inkscape:showpageshadow="0"
     inkscape:pageopacity="0"
     inkscape:pagecheckerboard="false"
     inkscape:deskcolor="#505050"
     inkscape:document-units="mm"
     inkscape:zoom="11.313709"
     inkscape:cx="4.1542523"
     inkscape:cy="20.196737"
     inkscape:window-width="1920"
     inkscape:window-height="1009"
     inkscape:window-x="-8"
     inkscape:window-y="-8"
     inkscape:window-maximized="1"
     inkscape:current-layer="layer4"
     showguides="true" /><defs
     id="defs1"><inkscape:path-effect
       effect="fillet_chamfer"
       id="path-effect2"
       is_visible="true"
       lpeversion="1"
       nodesatellites_param="F,0,0,1,0,0,0,1 @ F,0,0,1,0,0,0,1 @ F,0,0,1,0,0.058573825,0,1 @ F,0,1,1,0,0.058573825,0,1"
       radius="0"
       unit="px"
       method="auto"
       mode="F"
       chamfer_steps="1"
       flexible="false"
       use_knot_distance="true"
       apply_no_radius="true"
       apply_with_radius="true"
       only_selected="false"
       hide_knots="false" /></defs><g
     inkscape:groupmode="layer"
     id="layer3"
     inkscape:label="fork"
     style="display:inline"><g
       id="g11"
       transform="translate(-5.6223958,-1.0922352)"
       style="display:inline;opacity:1"><path
         id="path2"
         style="opacity:1;fill:#ffffff;fill-opacity:0.989637;stroke:#010101;stroke-width:0.0780521;stroke-opacity:1"
         d="m 6.6275024,6.485909 -0.2154907,5.091679 c -0.00137,0.0317 0.024081,0.05809 0.055811,0.05788 l 0.5629488,-0.0015 c 0.031695,-6.46e-4 0.06318,-0.03241 0.061819,-0.06408 L 6.8491949,6.4900651 c -0.073898,-0.00137 -0.147795,-0.00277 -0.2216925,-0.00416 z"
         sodipodi:nodetypes="cccccccc" /><path
         style="opacity:1;fill:#ffffff;fill-opacity:0.989637;stroke:#010101;stroke-width:0.0780521;stroke-opacity:1"
         d="m 6.6311196,6.4554199 c 0,0 -0.025839,-0.173633 -0.1209227,-0.3234946 C 6.4151123,5.9820637 6.2435464,5.8115316 6.2208089,5.6027587 L 6.248714,3.4478515 c 0,0 0,-0.2139405 0.056844,-0.1984375 0.056844,0.015502 0.1147218,2.1208008 0.1147218,2.1208008 0,0 0.046765,0.092089 0.1023194,-0.00414"
         id="path8"
         sodipodi:nodetypes="csccscc" /><path
         style="opacity:1;fill:#ffffff;fill-opacity:0.989637;stroke:#010101;stroke-width:0.0780521;stroke-opacity:1"
         d="m 6.5170916,5.3855404 0.026872,-1.9347656 c 0,0 0,-0.2139405 0.056844,-0.1984375 0.056844,0.015502 0.1147218,2.1208008 0.1147218,2.1208008 0,0 0.046765,0.092089 0.1023194,-0.00414"
         id="path9"
         sodipodi:nodetypes="ccscc" /><path
         style="opacity:1;fill:#ffffff;fill-opacity:0.989637;stroke:#010101;stroke-width:0.0780521;stroke-opacity:1"
         d="m 6.8133745,5.390708 0.025838,-1.9399332 c 0,0 0,-0.2139405 0.056844,-0.1984375 0.056844,0.015502 0.077515,2.127002 0.077515,2.127002 0,0 0.09224,0.085888 0.1477946,-0.010341"
         id="path10"
         sodipodi:nodetypes="ccscc" /><path
         style="opacity:1;fill:#ffffff;fill-opacity:0.989637;stroke:#010101;stroke-width:0.0780521;stroke-opacity:1"
         d="m 6.8576272,6.4554199 c 0,0 0.025839,-0.173633 0.1209227,-0.3234946 0.095085,-0.1498616 0.2666505,-0.3203937 0.289388,-0.5291666 L 7.2400328,3.4478515 c 0,0 0,-0.2139405 -0.056844,-0.1984375 -0.056844,0.015502 -0.1116343,2.1244333 -0.1116343,2.1244333 0,0 -0.049853,0.088457 -0.1054074,-0.00777"
         id="path11"
         sodipodi:nodetypes="csccscc" /></g></g><g
     inkscape:groupmode="layer"
     id="layer4"
     inkscape:label="plate"
     style="display:inline"><g
       id="g12"
       transform="translate(-1.8622126,-0.19843712)"><circle
         style="opacity:1;fill:#ffffff;fill-opacity:0.989637;stroke:#010101;stroke-width:0.0780521;stroke-opacity:1"
         id="path12"
         cx="8.2682295"
         cy="6.5484371"
         r="4.3986979" /><circle
         style="opacity:1;fill:#ffffff;fill-opacity:0.989637;stroke:#010101;stroke-width:0.0669999;stroke-opacity:1"
         id="circle12"
         cx="8.2682295"
         cy="6.5484371"
         r="3.7758384"
         inkscape:label="circle12" /></g></g><g
     inkscape:groupmode="layer"
     id="layer5"
     inkscape:label="knife"><path
       style="opacity:1;fill:#ffffff;fill-opacity:0.989637;stroke:#010101;stroke-width:0.0780521;stroke-opacity:1"
       d="m 12.020447,2.1276437 v 8.3839113 c 0,0 -0.178149,0.08662 -0.501401,0 l 0.162303,-3.3091312 c 0,0 -0.327405,0.011692 -0.514494,-0.3040192 0,0 0.11693,-3.2155863 0.853592,-4.7707609 z"
       id="path13" /></g></svg>
