<?xml version="1.0" encoding="UTF-8" standalone="no"?>
<!-- Created with Inkscape (http://www.inkscape.org/) -->

<svg
   width="48"
   height="48"
   viewBox="0 0 12.7 12.7"
   version="1.1"
   id="svg1"
   sodipodi:docname="savings.svg"
   inkscape:version="1.3.2 (091e20e, 2023-11-25, custom)"
   xmlns:inkscape="http://www.inkscape.org/namespaces/inkscape"
   xmlns:sodipodi="http://sodipodi.sourceforge.net/DTD/sodipodi-0.dtd"
   xmlns="http://www.w3.org/2000/svg"
   xmlns:svg="http://www.w3.org/2000/svg">
  <sodipodi:namedview
     id="namedview1"
     pagecolor="#ffffff"
     bordercolor="#ffffff"
     borderopacity="1"
     inkscape:showpageshadow="0"
     inkscape:pageopacity="0"
     inkscape:pagecheckerboard="false"
     inkscape:deskcolor="#505050"
     inkscape:document-units="px"
     inkscape:zoom="22.627417"
     inkscape:cx="32.504815"
     inkscape:cy="23.577592"
     inkscape:window-width="1920"
     inkscape:window-height="1009"
     inkscape:window-x="-8"
     inkscape:window-y="-8"
     inkscape:window-maximized="1"
     inkscape:current-layer="layer8"
     showguides="false">
    <sodipodi:guide
       position="6.3500001,6.3500001"
       orientation="0,1"
       id="guide1"
       inkscape:locked="false"
       inkscape:label=""
       inkscape:color="rgb(0,134,229)" />
    <sodipodi:guide
       position="6.3500001,6.3500001"
       orientation="-1,0"
       id="guide2"
       inkscape:locked="false"
       inkscape:label=""
       inkscape:color="rgb(0,134,229)" />
    <sodipodi:guide
       position="7.0208719,1.7291743"
       orientation="0,-1"
       id="guide3"
       inkscape:locked="false" />
    <sodipodi:guide
       position="3.4590096,2.7750241"
       orientation="0,-1"
       id="guide4"
       inkscape:locked="false" />
  </sodipodi:namedview>
  <defs
     id="defs1">
    <inkscape:path-effect
       effect="fillet_chamfer"
       id="path-effect10"
       is_visible="true"
       lpeversion="1"
       nodesatellites_param="F,0,0,1,0,0,0,1 @ F,0,0,1,0,0.20702405,0,1 @ F,0,0,1,0,0.20702405,0,1 @ F,0,1,1,0,1.1836248,0,1 @ F,0,1,1,0,0,0,1"
       radius="0"
       unit="px"
       method="auto"
       mode="F"
       chamfer_steps="1"
       flexible="false"
       use_knot_distance="true"
       apply_no_radius="true"
       apply_with_radius="true"
       only_selected="false"
       hide_knots="false" />
    <inkscape:path-effect
       effect="fillet_chamfer"
       id="path-effect9"
       is_visible="true"
       lpeversion="1"
       nodesatellites_param="F,0,0,1,0,0,0,1 @ F,0,0,1,0,0,0,1 @ F,0,0,1,0,0,0,1 @ F,0,0,1,0,0,0,1 @ F,0,0,1,0,0,0,1 @ F,0,0,1,0,0,0,1"
       radius="0"
       unit="px"
       method="arc"
       mode="F"
       chamfer_steps="1"
       flexible="false"
       use_knot_distance="true"
       apply_no_radius="true"
       apply_with_radius="true"
       only_selected="false"
       hide_knots="false" />
    <inkscape:path-effect
       effect="join_type"
       id="path-effect7"
       is_visible="true"
       lpeversion="1"
       linecap_type="butt"
       line_width="0.1"
       linejoin_type="extrp_arc"
       miter_limit="100"
       attempt_force_join="true" />
    <inkscape:path-effect
       effect="fillet_chamfer"
       id="path-effect6"
       is_visible="true"
       lpeversion="1"
       nodesatellites_param="F,0,0,1,0,0,0,1 @ F,0,0,1,0,0,0,1 @ F,0,0,1,0,0,0,1 @ F,0,0,1,0,0,0,1 @ F,0,0,1,0,0,0,1"
       radius="0"
       unit="px"
       method="auto"
       mode="F"
       chamfer_steps="1"
       flexible="false"
       use_knot_distance="true"
       apply_no_radius="true"
       apply_with_radius="true"
       only_selected="false"
       hide_knots="false" />
    <inkscape:path-effect
       effect="fillet_chamfer"
       id="path-effect4"
       is_visible="true"
       lpeversion="1"
       nodesatellites_param="F,0,0,1,0,0,0,1 @ F,0,0,1,0,0,0,1 @ F,0,0,1,0,0,0,1 @ F,0,0,1,0,0,0,1 @ F,0,0,1,0,0,0,1 @ F,0,0,1,0,0,0,1 @ F,0,0,1,0,1.0628792,0,1 @ F,0,0,1,0,0,0,1 @ F,0,0,1,0,0.09956089,0,1 @ F,0,0,1,0,0,0,1 @ F,0,0,1,0,0,0,1 @ F,0,0,1,0,0,0,1 @ F,0,0,1,0,0,0,1 @ F,0,0,1,0,0.50551311,0,1 @ F,0,0,1,0,0.85688484,0,1"
       radius="0"
       unit="px"
       method="auto"
       mode="F"
       chamfer_steps="1"
       flexible="false"
       use_knot_distance="true"
       apply_no_radius="true"
       apply_with_radius="true"
       only_selected="false"
       hide_knots="false" />
    <inkscape:path-effect
       effect="fill_between_many"
       method="bsplinespiro"
       autoreverse="false"
       close="false"
       join="false"
       linkedpaths="#rect6,0,1"
       id="path-effect8" />
  </defs>
  <g
     inkscape:label="pig"
     inkscape:groupmode="layer"
     id="layer1">
    <path
       style="fill:#ffffff;fill-opacity:1;stroke:#000000;stroke-width:0.117;stroke-dasharray:none"
       d="M 3.8129613,10.95941 H 4.9773987 V 9.9091332 c -0.00792,-0.055473 1.3902274,0.4446338 3.282115,0 v 1.0674008 h 1.0331527 c 0,0 1.7792256,-2.1549355 0.582229,-3.8880003 C 9.5431597,6.6082319 8.6625489,6.2186077 8.0852664,6.1157797 7.1644496,5.95176 5.7893653,5.8410377 4.634917,6.347325 c 0,0 -0.2925557,-0.5642151 -0.9676302,-0.7730299 -0.051504,-0.015931 -0.070033,0.011456 -0.041766,0.058613 0.126509,0.2110495 0.4207533,0.7434468 0.1696062,0.7434468 -0.3132314,0 -0.7242093,0.3832137 -0.6899611,0.9540162 L 2.5560358,7.5219098 v 0.8403495 l 0.9725817,0.265457 c -0.00166,0.032797 0.057182,0.2210359 0.1292703,0.4407278 0.1381235,0.4209397 0.2115921,1.1477389 0.1757079,1.6196209 z"
       id="path4"
       sodipodi:nodetypes="cccccccccscccccc"
       inkscape:path-effect="#path-effect4"
       inkscape:original-d="M 3.8129613,10.95941 H 4.9773987 V 9.9091332 c -0.00792,-0.055473 1.3902274,0.4446338 3.282115,0 v 1.0674008 h 1.0331527 c 0,0 2.3517066,-2.8483049 -0.1712409,-4.629209 0.00363,0.036321 -2.5514007,-0.8486483 -4.4865085,0 0,0 -0.3196492,-0.6164668 -1.0616928,-0.7991237 0,0 0.5351349,0.828154 0.2219031,0.828154 -0.3132314,0 -0.7242093,0.3832137 -0.6899611,0.9540162 L 2.5560358,7.5219098 v 0.8403495 l 0.9725817,0.265457 c -0.00467,0.0924 0.4708528,1.4186007 0.3699523,1.205931 z"
       transform="matrix(1.3788885,0,0,1.3788885,-2.9915726,-5.0576909)" />
  </g>
  <g
     inkscape:groupmode="layer"
     id="layer6"
     inkscape:label="tail">
    <g
       id="g10"
       transform="translate(-1.1192434,-0.98519361)"
       style="fill:none;stroke:#000000;stroke-opacity:1;stroke-width:0.10583333;stroke-dasharray:none">
      <path
         style="fill:none;fill-opacity:0;stroke:#000000;stroke-width:0.1066327;stroke-dasharray:none;stroke-opacity:1"
         d="m 9.5239829,7.5127796 c 0,0 0.4844571,0.5437783 0.9988071,0.044906 0.08189,-0.079429 0.194416,-0.2287294 0.246909,-0.3301649 0.190464,-0.368044 -0.119414,-0.4254015 -0.346543,-0.4228542 -0.11403,0.00128 -0.299588,0.05699 -0.35909,0.1532021 -0.2557968,0.4136229 1.257986,0.6160064 1.343743,0.04147"
         id="path9"
         sodipodi:nodetypes="csccc"
         inkscape:path-effect="#path-effect10"
         inkscape:original-d="m 9.5239829,7.5127796 c 0,0 0.5729591,0.6431172 1.1342251,-0.1110839 0.561266,-0.7542012 -0.4408,-0.5796262 -0.4408,-0.5796262 0,0 -0.6196091,0.2912013 0.374299,0.8407743 0,0 0.699171,0.1199291 0.816102,-0.6635046"
         transform="matrix(0.99250355,0,0,0.99250355,1.9956205,-1.4863863)" />
    </g>
  </g>
  <g
     inkscape:groupmode="layer"
     id="layer5"
     inkscape:label="slot"
     style="fill:#ffffff;fill-opacity:1">
    <g
       inkscape:groupmode="layer"
       id="layer4"
       inkscape:label="eye">
      <circle
         style="fill:#000000;fill-opacity:1;stroke:#000000;stroke-width:0.0870581;stroke-dasharray:none;stroke-opacity:1"
         id="path5"
         cx="3.4758329"
         cy="5.8249469"
         r="0.17889465"
         transform="translate(-1.1192434,-0.9851936)" />
    </g>
    <path
       id="rect6"
       transform="matrix(1.2743005,0,0,-1.2743005,-2.5575548,-4.3089915)"
       d="m 5.1224612,-6.6435227 c 1.2527958,0.3676296 2.5031845,0.4897365 3.7475748,0 0.052214,-0.020549 0.1012858,0.045173 0.1012858,0.1012858 0,0.056112 -0.048155,0.08324 -0.1012858,0.1012858 -1.2935713,0.4393595 -2.5383746,0.3959153 -3.7475748,0 -0.053326,-0.01746 -0.1012858,-0.045173 -0.1012858,-0.1012858 0,-0.056112 0.047444,-0.1170854 0.1012858,-0.1012858 z"
       style="fill:#000000;fill-opacity:1;fill-rule:nonzero;stroke:#000000;stroke-width:0.0264583;stroke-dasharray:none;stroke-opacity:1"
       sodipodi:nodetypes="sssssss" />
  </g>
  <g
     inkscape:groupmode="layer"
     id="layer7"
     inkscape:label="coin"
     transform="matrix(1.3331857,0,0,1.3331857,-1.8985472,1.5340983)"
     style="fill:#ffffff;fill-opacity:1">
    <circle
       style="fill:#ffffff;fill-opacity:1;stroke:#000000;stroke-width:0.1;stroke-dasharray:none;stroke-opacity:1"
       id="path10"
       cx="6.1684899"
       cy="1.2902344"
       r="1.2485026" />
    <circle
       style="fill:#ffffff;fill-opacity:1;stroke:#000000;stroke-width:0.1;stroke-dasharray:none;stroke-opacity:1"
       id="path11"
       cx="6.1684899"
       cy="1.2902344"
       r="1.0914062" />
  </g>
  <g
     inkscape:groupmode="layer"
     id="layer8"
     inkscape:label="cover">
    <path
       id="path12"
       d="m 3.9700001,4.4048996 c 1.5964383,-0.4684705 3.1898092,-0.6240714 4.7755364,0 0.066536,0.026186 0.1290686,-0.057564 0.1290686,-0.1290685 0,-0.071503 -0.061364,-0.1060728 -0.1290686,-0.1290685 -1.6483985,-0.5598761 -3.234652,-0.5045151 -4.7755364,0 -0.067953,0.022249 -0.1290686,0.057564 -0.1290686,0.1290685 0,0.071504 0.060458,0.149202 0.1290686,0.1290685 z"
       style="fill:#ffffff;fill-opacity:1;fill-rule:nonzero;stroke:#000000;stroke-width:0.134;stroke-dasharray:none;stroke-opacity:1"
       sodipodi:nodetypes="sssssss" />
    <path
       id="path20"
       style="fill:#ffffff;fill-opacity:1;fill-rule:nonzero;stroke:#ffffff;stroke-width:0.0346293;stroke-dasharray:none;stroke-opacity:1"
       d="m 6.3148797,3.7397623 c -0.8393122,0.00692 -1.6646641,0.15488 -2.4778208,0.4070118 -0.07172,0.022238 -0.1358083,0.057658 -0.1358083,0.1291268 0,0.052504 0.034278,0.1080665 0.081267,0.1260279 -0.046633,0.022655 -0.081267,0.055565 -0.081267,0.1079499 0,0.050398 0.031709,0.1028343 0.075812,0.1229287 -0.043812,0.022518 -0.075812,0.05464 -0.075812,0.1048511 0,0.055322 0.03804,0.114094 0.088903,0.1286102 -0.050438,0.022692 -0.088903,0.055942 -0.088903,0.111049 0,0.052351 0.033943,0.1078984 0.080721,0.1260279 -0.046382,0.02261 -0.080721,0.055322 -0.080721,0.1074334 0,0.055506 0.038333,0.1143426 0.089448,0.1286104 -0.04444,0.022544 -0.077449,0.054691 -0.077449,0.1053675 0,0.071468 0.063938,0.1492503 0.1363538,0.1291267 1.6849456,-0.4682364 3.3665401,-0.6237596 5.0401808,0 0.070225,0.026173 0.1363538,-0.057658 0.1363538,-0.1291267 0,-0.054149 -0.037074,-0.086709 -0.086176,-0.1094996 0.042317,-0.021022 0.07363,-0.075343 0.07363,-0.1244783 0,-0.051699 -0.033829,-0.083741 -0.079631,-0.1064004 0.045421,-0.018522 0.079631,-0.075565 0.079631,-0.1270609 0,-0.0536 -0.036178,-0.086735 -0.08454,-0.1094995 0.04797,-0.016079 0.08454,-0.076725 0.08454,-0.1301597 0,-0.049595 -0.031204,-0.081307 -0.074176,-0.1038179 0.042536,-0.020862 0.074176,-0.07466 0.074176,-0.1239619 0,-0.051539 -0.033621,-0.084232 -0.079086,-0.106917 0.045086,-0.018816 0.079086,-0.07582 0.079086,-0.1270608 0,-0.071467 -0.06435,-0.1061425 -0.1358084,-0.1291268 C 8.0078911,3.8669756 7.1541919,3.7328457 6.3148797,3.7397623 Z m 0.8339396,0.2794345 c 0.3260273,0.0278 0.6518755,0.079106 0.977384,0.1570183 C 7.7980083,4.1028309 7.4725569,4.0507678 7.1488193,4.0191968 Z m -0.385063,0.4395476 c 0.548293,0.016725 1.0959521,0.095307 1.6427903,0.2525721 C 7.8527212,4.567247 7.3050199,4.4850431 6.7637563,4.4587444 Z m 0.385063,0.2613528 c 0.326027,0.0278 0.6518758,0.079623 0.977384,0.1575347 C 7.798222,4.8042565 7.4723457,4.7517075 7.1488193,4.7200972 Z m 0.1412626,0.2474069 c 0.2021053,0.021456 0.4040489,0.05237 0.6059561,0.092972 -0.2029011,-0.03902 -0.4047664,-0.069995 -0.6059561,-0.092972 z"
       sodipodi:nodetypes="csscscscscscscsscscscscscssccccccccccccc" />
  </g>
</svg>
