<?xml version="1.0" encoding="UTF-8" standalone="no"?>
<!-- Created with Inkscape (http://www.inkscape.org/) -->

<svg
   width="512"
   height="512"
   viewBox="0 0 135.46667 135.46667"
   version="1.1"
   id="svg1"
   inkscape:version="1.3.2 (091e20e, 2023-11-25, custom)"
   sodipodi:docname="mini-logo.svg"
   xmlns:inkscape="http://www.inkscape.org/namespaces/inkscape"
   xmlns:sodipodi="http://sodipodi.sourceforge.net/DTD/sodipodi-0.dtd"
   xmlns="http://www.w3.org/2000/svg"
   xmlns:svg="http://www.w3.org/2000/svg">
  <sodipodi:namedview
     id="namedview1"
     pagecolor="#ffffff"
     bordercolor="#ffffff"
     borderopacity="1"
     inkscape:showpageshadow="0"
     inkscape:pageopacity="0"
     inkscape:pagecheckerboard="false"
     inkscape:deskcolor="#505050"
     inkscape:document-units="mm"
     inkscape:zoom="1.0242632"
     inkscape:cx="78.593079"
     inkscape:cy="291.42899"
     inkscape:window-width="1920"
     inkscape:window-height="1009"
     inkscape:window-x="-8"
     inkscape:window-y="-8"
     inkscape:window-maximized="1"
     inkscape:current-layer="svg1" />
  <defs
     id="defs1" />
  <g
     id="g19"
     inkscape:label="target"
     transform="matrix(1.5772668,0,0,1.5979825,-38.285332,-18.57049)">
    <circle
       style="fill:#000000;fill-opacity:1;stroke:#000000;stroke-width:0.765;stroke-dasharray:none"
       id="path1"
       cx="67.216698"
       cy="42.463909"
       r="16.7131" />
    <circle
       style="fill:#f9f9f9;stroke:#000000;stroke-width:0.049776"
       id="path1-1"
       cx="67.216698"
       cy="42.463909"
       r="12.781442" />
    <path
       style="fill:#f9f9f9;stroke:#000000;stroke-width:0.6;stroke-dasharray:none"
       d="m 51.980469,49.481929 15.178265,32.470385 0.0034,0.0072"
       id="path6"
       sodipodi:nodetypes="ccc" />
    <path
       style="fill:#f9f9f9;stroke:#000000;stroke-width:0.6;stroke-dasharray:none"
       d="M 67.286635,81.959558 82.497324,49.444844"
       id="path6-6"
       sodipodi:nodetypes="cc" />
    <path
       style="fill:#000000;fill-opacity:1;stroke:#000000;stroke-width:0.001;stroke-dasharray:none"
       d="m 66.885839,82.07561 0.330551,0.571089 0.173403,-0.279477 0.171997,-0.289555 -0.310057,-0.139526 -0.08268,0.0062 z"
       id="path9"
       sodipodi:nodetypes="ccccccc" />
    <path
       style="fill:#000000;fill-opacity:1;stroke:#000000;stroke-width:1.02224;stroke-dasharray:none"
       d="m 206.32879,204.53202 c 15.51713,33.78507 31.28648,67.59966 47.05436,101.32412 0.953,2.57055 0.46596,-1.40151 0.60077,-2.19038 0.0965,-26.12813 0.0881,-52.28168 0.0463,-78.39425 -13.9846,-0.40005 -27.98167,-4.74567 -39.06903,-13.41017 -3.07866,-2.20076 -5.65329,-5.04005 -8.63236,-7.32932 z"
       id="path10"
       transform="scale(0.26458333)" />
    <path
       style="fill:#000000;fill-opacity:1;stroke:#000000;stroke-width:1.02224;stroke-dasharray:none"
       d="m 301.73503,204.48644 c -5.06503,4.49827 -10.11008,9.16615 -16.14192,12.38956 -9.37561,5.42251 -20.17797,7.76458 -30.88413,8.44592 0.0177,26.49147 0.0315,52.98572 -0.27484,79.47425 -0.0546,0.57404 0.13525,2.02098 0.54552,0.57322 15.73724,-33.55472 31.41581,-67.15423 46.79957,-100.86361 -0.008,-0.016 -0.0274,-0.0237 -0.0442,-0.0193 z"
       id="path11"
       transform="scale(0.26458333)" />
    <path
       style="fill:#000000;fill-opacity:1;stroke:#000000;stroke-width:0.255561;stroke-dasharray:none"
       d="m 205.83264,203.567 c -0.0671,0.2409 0.19487,0.54491 0.32265,0.76269 0.16252,0.23181 0.43796,-0.11199 0.21631,-0.26689 -0.15642,-0.17662 -0.31976,-0.40517 -0.53896,-0.4958 z"
       id="path15"
       transform="scale(0.26458333)" />
    <path
       style="fill:#000000;fill-opacity:1;stroke:#000000;stroke-width:0.12778;stroke-dasharray:none"
       d="m 302.42755,203.3317 c -0.22262,0.1766 -0.41821,0.40433 -0.57988,0.63779 0.0732,0.0922 0.29811,0.23765 0.33678,0.0274 0.0948,-0.21192 0.23969,-0.42285 0.27262,-0.65189 -0.006,-0.0103 -0.0183,-0.0151 -0.0295,-0.0133 z"
       id="path16"
       transform="scale(0.26458333)" />
    <path
       style="fill:#000000;fill-opacity:1;stroke:#000000;stroke-width:0.0112943;stroke-dasharray:none"
       d="m 302.52649,203.17516 c -0.029,0.022 -0.0516,0.0528 -0.0737,0.0818 -0.0146,0.0189 4.1e-4,0.0403 0.018,0.049 0.0164,0.0206 0.0486,0.0128 0.0542,-0.0128 0.0119,-0.0328 0.0378,-0.0634 0.0372,-0.0993 -0.004,-0.0148 -0.021,-0.024 -0.0357,-0.0186 z"
       id="path17"
       transform="scale(0.26458333)" />
    <path
       style="fill:#000000;fill-opacity:1;stroke:#000000;stroke-width:0.0225886;stroke-dasharray:none"
       d="m 254.0719,309.63412 c -0.0354,0.008 -0.0724,0.0256 -0.097,0.052 -7.7e-4,0.0542 0.0674,0.0306 0.10331,0.0333 0.0305,0.002 0.0913,-0.0122 0.066,-0.0543 -0.0193,-0.0166 -0.0466,-0.0301 -0.0724,-0.031 z"
       id="path18"
       transform="scale(0.26458333)" />
    <path
       style="fill:#000000;fill-opacity:1;stroke:#000000;stroke-width:0.0112943;stroke-dasharray:none"
       d="m 254.47767,306.45129 c -0.0361,0.005 -0.029,0.0492 -0.0345,0.0754 -0.0242,0.16462 -0.0661,0.33502 -0.17478,0.4658 -0.0843,0.10535 -0.20834,0.17646 -0.34154,0.19732 -0.0234,0.002 -0.0518,0.0216 -0.0392,0.0476 0.0564,0.11885 0.10824,0.2401 0.16797,0.3572 0.0188,0.0209 0.0474,0.003 0.0522,-0.0207 0.16578,-0.35293 0.3304,-0.70644 0.49146,-1.06155 0.01,-0.0266 -0.0191,-0.041 -0.041,-0.0432 -0.0269,-0.005 -0.0534,-0.0152 -0.0806,-0.0179 z"
       id="path19"
       transform="scale(0.26458333)" />
    <text
       xml:space="preserve"
       style="font-weight:bold;font-size:20.1965px;font-family:'Fira Mono for Powerline';-inkscape-font-specification:'Fira Mono for Powerline, Bold';fill:#000000;stroke:#000000;stroke-width:0.306923;stroke-dasharray:none"
       x="62.123196"
       y="48.770386"
       id="text3"><tspan
         sodipodi:role="line"
         id="tspan3"
         style="font-style:normal;font-variant:normal;font-weight:bold;font-stretch:normal;font-size:20.1965px;font-family:Calibri;-inkscape-font-specification:'Calibri, Bold';font-variant-ligatures:normal;font-variant-caps:normal;font-variant-numeric:normal;font-variant-east-asian:normal;stroke-width:0.306923;stroke-dasharray:none"
         x="62.123196"
         y="48.770386">$</tspan></text>
    <path
       style="fill:#000000;stroke:#000000;stroke-width:0.0338085"
       d="m 40.752831,49.439733 c -0.09204,0.09111 -0.189714,0.190425 -0.221758,0.320325 -0.01913,0.06897 -0.09762,0.14291 -0.04138,0.214016 0.0232,0.04671 0.04203,-0.03099 0.05378,-0.04899 0.07337,-0.159888 0.154434,-0.318037 0.219202,-0.480902 -0.0013,-0.0042 -0.006,-0.006 -0.0098,-0.0044 z"
       id="path2"
       transform="matrix(1.0579955,0,0,1.0442799,37.121131,1.917744)" />
    <path
       style="fill:#000000;stroke:#000000;stroke-width:0.00552427;stroke-dasharray:none"
       d="m 61.108846,186.9841 c -0.02364,0.0503 0.03288,0.1022 0.04436,0.15147 0.03554,0.0668 0.05537,0.14548 0.102806,0.2036 0.05858,0.0127 0.01797,-0.0906 0.06797,-0.0753 0.05822,-0.0256 -0.009,-0.0826 -0.03005,-0.1108 -0.05531,-0.0568 -0.09777,-0.13265 -0.164765,-0.17514 l -0.01057,0.003 z"
       id="path7"
       transform="matrix(0.27992797,0,0,0.27629906,37.121131,1.917744)" />
    <path
       style="fill:#000000;stroke:#000000;stroke-width:0.03125;stroke-dasharray:none"
       d="m 61.293335,187.24841 c -0.0338,0.2378 0.197105,0.50512 0.263794,0.74414 0.178455,0.34027 0.297844,0.74482 0.544189,1.03382 0.24441,-0.0529 -0.0355,-0.37437 -0.09143,-0.48511 -0.251767,-0.2943 -0.0575,-0.74333 -0.383232,-0.99688 -0.102923,-0.0958 -0.192762,-0.25903 -0.333321,-0.29597 z"
       id="path5"
       transform="matrix(0.27992797,0,0,0.27629906,37.121131,1.917744)" />
    <path
       style="fill:#000000;stroke:#000000;stroke-width:0.00552427;stroke-dasharray:none"
       d="m 61.8043,187.76726 c -0.03757,0.0211 -0.0094,0.0755 0.0071,0.10042 -0.02151,0.0375 0.03062,0.0806 0.05391,0.0382 0.03859,-0.0495 3.86e-4,-0.1359 -0.06105,-0.13864 z"
       id="path8"
       transform="matrix(0.27992797,0,0,0.27629906,37.121131,1.917744)" />
    <path
       style="fill:#000000;stroke:#000000;stroke-width:0.12778"
       d="m 62.035155,191.61411 c -0.03378,0.15756 0.139567,0.33244 0.178158,0.49244 0.249852,0.5011 0.440314,1.04042 0.747589,1.50864 0.134093,0.0773 0.227772,-0.1607 0.103753,-0.23866 -0.204359,-0.27496 -0.382128,-0.59326 -0.346131,-0.94655 -0.152148,-0.31536 -0.422178,-0.57025 -0.666537,-0.81587 l -0.01562,-3.4e-4 z"
       id="path3"
       transform="matrix(0.27992797,0,0,0.27629906,37.121131,1.917744)" />
  </g>
</svg>
